<svg height='100px' width='100px'  fill="#000000" xmlns="http://www.w3.org/2000/svg" data-name="Layer 1" viewBox="0 0 64 64" x="0px" y="0px"><path d="M60.832,30.478a1,1,0,0,0-1.057-1.53l-6.568,1.516a36.47,36.47,0,0,0-7.762,2.741A35.679,35.679,0,0,0,51.781,18.6l1.389-7.413a1,1,0,0,0-1.69-.891L43.6,18.174a35.971,35.971,0,0,0-5.978,7.935A47.446,47.446,0,0,0,35.83,11.767L32.953,2.7a1,1,0,0,0-1.906,0l-2.885,9.1a47.345,47.345,0,0,0-1.783,14.314A35.966,35.966,0,0,0,20.4,18.174L12.52,10.293a1,1,0,0,0-1.69.891L12.219,18.6a35.681,35.681,0,0,0,6.336,14.607,36.415,36.415,0,0,0-7.762-2.741L4.225,28.948a1,1,0,0,0-1.057,1.53A36.874,36.874,0,0,0,19.536,43.965a19.115,19.115,0,0,0-2.244,1.062l-6.778,3.765a1,1,0,0,0,.386,1.87l6.971.7a19.648,19.648,0,0,0,7.2-.621,17.438,17.438,0,0,0-1.161,2.984l-.573,2a1,1,0,0,0,1.516,1.107l1.127-.751A18.077,18.077,0,0,0,31,51.1V62h2V51.1a18.077,18.077,0,0,0,5.019,4.977l1.127.751a1,1,0,0,0,1.516-1.107l-.573-2a17.438,17.438,0,0,0-1.161-2.984,19.648,19.648,0,0,0,7.2.621l6.971-.7a1,1,0,0,0,.386-1.87l-6.778-3.765a19.115,19.115,0,0,0-2.244-1.062A36.874,36.874,0,0,0,60.832,30.478ZM41.07,43.1a1,1,0,0,0,.084,1.925,17.674,17.674,0,0,1,4.582,1.753l3.986,2.214-3.792.379a17.754,17.754,0,0,1-8.889-1.42,1,1,0,0,0-1.217,1.495,15.946,15.946,0,0,1,2.116,4.106,15.469,15.469,0,0,1-5-6.978,1,1,0,0,0-1.886,0,15.469,15.469,0,0,1-5,6.978,15.946,15.946,0,0,1,2.116-4.106,1,1,0,0,0-1.217-1.495,17.754,17.754,0,0,1-8.889,1.42l-3.792-.379,3.986-2.214a17.674,17.674,0,0,1,4.582-1.753A1,1,0,0,0,22.93,43.1,34.892,34.892,0,0,1,6.373,31.5l3.97.917A34.5,34.5,0,0,1,23,38.208a1,1,0,0,0,1.3-1.515l-.783-.783a33.694,33.694,0,0,1-9.326-17.681l-.794-4.236,5.6,5.6a34.047,34.047,0,0,1,8,12.716,1,1,0,0,0,1.931-.488,45.386,45.386,0,0,1,1.161-19.445L32,6.307l1.916,6.037a45.412,45.412,0,0,1,1.169,19.472,1,1,0,0,0,1.931.488,34.047,34.047,0,0,1,8-12.716l5.6-5.6-.794,4.236A33.694,33.694,0,0,1,40.489,35.91l-.783.783A1,1,0,0,0,41,38.208a34.5,34.5,0,0,1,12.655-5.794l3.97-.917A34.892,34.892,0,0,1,41.07,43.1Z"></path></svg>