<svg xmlns="http://www.w3.org/2000/svg" xmlns:xlink="http://www.w3.org/1999/xlink" width="100" height="100" viewBox="0 0 100 100"><rect width="100%" height="100%" fill="#FFFFFF"></rect><g transform="translate(50 50) scale(0.69 0.69) rotate(0) translate(-50 -50)" style="fill:#3BB300"><svg fill="#3BB300" xmlns="http://www.w3.org/2000/svg" data-name="Layer 2" viewBox="0 0 64 64" x="0px" y="0px"><path d="M47.049,17.646l.742-3.955-5.3,5.3a32.707,32.707,0,0,0-7.686,12.222,1,1,0,0,1-1.931-.488A43.637,43.637,0,0,0,31.75,12L29.943,6.307l-1.815,5.722a43.623,43.623,0,0,0-1.116,18.694,1,1,0,0,1-1.931.488A32.719,32.719,0,0,0,17.4,18.989l-5.3-5.3.742,3.955A32.373,32.373,0,0,0,21.8,34.641l.754.754a1,1,0,0,1-1.3,1.514A33.19,33.19,0,0,0,9.1,31.34l-3.716-.858A33.552,33.552,0,0,0,21.227,41.549a1,1,0,0,1-.084,1.924,16.972,16.972,0,0,0-4.4,1.683l-3.73,2.073,3.529.352a17.053,17.053,0,0,0,8.535-1.363,1,1,0,0,1,1.216,1.495,15.327,15.327,0,0,0-1.984,3.806,15.317,15.317,0,0,0,4.69-6.7,1,1,0,0,1,1.887,0,14.446,14.446,0,0,0,1.124,2.4c0-.072-.011-.143-.011-.216,0-4.481,3.81-9.774,6.084-12.359C42.43,29.7,45.836,24.113,47.049,17.646Z"></path><path d="M47,34A13,13,0,1,0,60,47,13.015,13.015,0,0,0,47,34ZM42,44a2,2,0,1,1-2,2A2,2,0,0,1,42,44Zm5,11a9,9,0,0,1-6.75-3.047l1.5-1.324a7,7,0,0,0,10.5,0l1.5,1.324A9,9,0,0,1,47,55Zm5-7a2,2,0,1,1,2-2A2,2,0,0,1,52,48Z"></path><polygon points="60 17 58 17 58 19 56 19 56 21 58 21 58 23 60 23 60 21 62 21 62 19 60 19 60 17"></polygon><rect x="40" y="7" width="2" height="2"></rect><rect x="50" y="3" width="2" height="2"></rect><polygon points="4 62 6 62 6 60 8 60 8 58 6 58 6 56 4 56 4 58 2 58 2 60 4 60 4 62"></polygon><polygon points="22 12 22 10 24 10 24 8 22 8 22 6 20 6 20 8 18 8 18 10 20 10 20 12 22 12"></polygon><rect x="10" y="2" width="2" height="2"></rect><rect x="6" y="19" width="2" height="2"></rect><rect x="2" y="11" width="2" height="2"></rect><rect x="13" y="54" width="2" height="2"></rect><rect x="24" y="59" width="2" height="2"></rect><rect x="60" y="10" width="2" height="2"></rect></svg></g></svg>